<svg xmlns="http://www.w3.org/2000/svg" width="200" height="200" viewBox="0 0 200 200">
  <!-- First SVG -->
  <g>
   
<?xml version="1.0" encoding="UTF-8"?>
<svg version="1.1" xmlns="http://www.w3.org/2000/svg" width="1118" height="329">
<path d="M0 0 C0.83141329 -0.00382555 1.66282658 -0.00765109 2.51943421 -0.01159257 C5.28582858 -0.02185329 8.05201269 -0.01794363 10.81842041 -0.01396179 C12.80995881 -0.01831217 14.80149553 -0.02349641 16.79302979 -0.02944946 C22.1899028 -0.04281743 27.58670569 -0.04342044 32.98359203 -0.04088616 C37.49622415 -0.03981469 42.00884217 -0.04470448 46.52147126 -0.04949158 C57.17319945 -0.06057974 67.82489237 -0.06102844 78.47662354 -0.05497742 C89.4465368 -0.04894118 100.4163217 -0.0612414 111.38621306 -0.08254749 C120.82003778 -0.10019304 130.25382176 -0.10616008 139.68766236 -0.10290974 C145.31510296 -0.10110103 150.94245204 -0.10369168 156.56987762 -0.11762428 C161.86573408 -0.13024562 167.1613913 -0.12821785 172.45724487 -0.11521339 C174.39373086 -0.11285721 176.33023106 -0.11554769 178.26670074 -0.12383652 C191.35218036 -0.17577955 203.37384133 0.37648095 215.06158447 6.94819641 C216.0121875 7.47473816 216.0121875 7.47473816 216.98199463 8.01191711 C231.29701577 16.19323507 240.91944705 29.41005884 245.37408447 45.26069641 C247.97160107 55.43114558 247.66378303 65.67632105 247.64874268 76.08979797 C247.65309593 78.0867634 247.65828112 80.08372716 247.66423035 82.08068848 C247.67756701 87.47965137 247.67820486 92.87854403 247.67566705 98.27752018 C247.67459349 102.797476 247.67949062 107.31741783 247.68427247 111.83737063 C247.69534969 122.50892617 247.69581542 133.18044651 247.6897583 143.852005 C247.6837224 154.8304417 247.69602394 165.80875011 247.71732837 176.78716493 C247.73499175 186.2397805 247.74093819 195.69235542 247.73769063 205.14498687 C247.73588483 210.77862651 247.73844312 216.41217468 247.75240517 222.04579926 C247.76505581 227.3482708 247.76297144 232.65054368 247.74999428 237.95301247 C247.74764446 239.88824089 247.75030527 241.82348361 247.7586174 243.7586956 C247.84653395 265.83609219 244.62831467 284.82412709 228.37408447 301.26069641 C216.47956438 311.68653338 202.42458547 317.59261349 186.64137268 317.52812195 C185.8105161 317.53265306 184.97965951 317.53718417 184.12362546 317.54185259 C181.36501275 317.55441999 178.60659942 317.55288121 175.84796143 317.55122375 C173.85951995 317.55721385 171.87108079 317.5640205 169.88264465 317.57157898 C164.49809928 317.58919852 159.11361753 317.59393269 153.72904611 317.59521055 C150.3594238 317.59663515 146.98981752 317.60091064 143.6201992 317.60620499 C131.84877883 317.62469283 120.07740365 317.63287728 108.30596924 317.63130188 C97.35933207 317.63010126 86.41289232 317.65119128 75.46630508 317.68278921 C66.0468651 317.70900322 56.62748938 317.71966701 47.20801324 317.71839106 C41.59166686 317.71788288 35.97549599 317.72348623 30.35918617 317.74474716 C25.07229653 317.76421565 19.78574825 317.76419537 14.49884605 317.7497139 C12.56803255 317.74763526 10.6371972 317.75226972 8.7064209 317.76443481 C-11.60718818 317.88404489 -27.95965908 313.73981775 -42.89544678 299.11616516 C-53.89703396 287.61092878 -59.95465398 273.14088462 -59.89334106 257.2306366 C-59.89787218 256.35571536 -59.90240329 255.48079413 -59.90707171 254.57936013 C-59.91966956 251.66562982 -59.91809831 248.75208755 -59.91644287 245.83833313 C-59.92243111 243.74166627 -59.92923733 241.64500162 -59.9367981 239.54833984 C-59.95443781 233.86415871 -59.9591527 228.18003783 -59.96042967 222.49583197 C-59.96185327 218.93977708 -59.9661269 215.38373741 -59.9714241 211.82768631 C-59.98991952 199.40788555 -59.99809555 186.98812767 -59.996521 174.5683136 C-59.99532058 163.0144698 -60.01640467 151.46081311 -60.04800832 139.90701663 C-60.07421628 129.96955488 -60.08488636 120.03215404 -60.08361018 110.09465802 C-60.08310176 104.16754457 -60.08871795 98.24059737 -60.10996628 92.31351852 C-60.12942412 86.73363088 -60.1294216 81.15406675 -60.11493301 75.57416725 C-60.11285299 73.53531353 -60.11749728 71.49643916 -60.12965393 69.45762062 C-60.24486446 48.7831926 -56.40359485 32.23188342 -41.48138428 16.99116516 C-30.13798948 6.14433485 -15.72688523 -0.07797415 0 0 Z " fill="#C03C2B" transform="translate(65.62591552734375,5.7393035888671875)"/>
<path d="M0 0 C11.55 0 23.1 0 35 0 C31.62515546 10.12453361 31.62515546 10.12453361 30.25415039 13.44311523 C29.94695572 14.19096786 29.63976105 14.9388205 29.32325745 15.70933533 C29.00130905 16.48459061 28.67936066 17.25984589 28.34765625 18.05859375 C28.00625107 18.88778824 27.66484589 19.71698273 27.31309509 20.57130432 C26.23238729 23.19454492 25.14760307 25.81607486 24.0625 28.4375 C23.33890378 30.19063598 22.61559422 31.94389031 21.89257812 33.69726562 C21.54141937 34.54882233 21.19026062 35.40037903 20.82846069 36.27774048 C19.50248043 39.49431022 18.17696432 42.71106978 16.85284424 45.92840576 C16.10463174 47.74584513 15.35492725 49.56267011 14.60498047 51.37939453 C14.23904785 52.2764209 13.87311523 53.17344727 13.49609375 54.09765625 C13.19759521 54.82605713 12.89909668 55.55445801 12.59155273 56.30493164 C11.89016793 58.01549815 11.89016793 58.01549815 12 60 C12.94359375 60.14695313 13.8871875 60.29390625 14.859375 60.4453125 C29.23098368 62.95601522 41.04010638 68.04982101 50.2265625 79.86328125 C56.53516236 88.89031415 59.58336926 96.78638105 59.5 107.8125 C59.49500488 108.68616211 59.49000977 109.55982422 59.48486328 110.45996094 C59.19205702 121.36850864 55.14871507 129.86037393 48 138 C47.49984375 138.59296875 46.9996875 139.1859375 46.484375 139.796875 C37.96837522 149.13967088 26.09380484 154.68738577 13.50939941 155.28945923 C8.01983977 155.45097472 2.53050916 155.44441663 -2.9609375 155.43359375 C-4.99915743 155.43816349 -7.03737583 155.4434714 -9.07559204 155.44947815 C-13.33366176 155.45837802 -17.59154361 155.45602212 -21.84960938 155.44604492 C-27.27503302 155.43456394 -32.69980493 155.45476978 -38.12514305 155.48396206 C-42.33080078 155.50241105 -46.53630486 155.50201425 -50.74199295 155.49632454 C-52.74084003 155.49617236 -54.73969823 155.50212981 -56.73850632 155.51461601 C-72.26385803 155.5979491 -84.91971529 154.28620619 -98 145 C-98.66 144.34 -99.32 143.68 -100 143 C-103.33212704 143.35551983 -105.46239244 144.87203877 -108.125 146.8125 C-121.90436034 156.25601549 -139.01444962 156.7992021 -155.20898438 154.71582031 C-163.45162225 153.10949642 -170.23746056 148.7832596 -177 144 C-177.99 143.34 -178.98 142.68 -180 142 C-180.61746094 142.45890625 -181.23492188 142.9178125 -181.87109375 143.390625 C-196.16124842 153.74391818 -209.01183614 155.30561322 -226.38842773 155.2746582 C-228.01588167 155.2790138 -229.64333357 155.28419975 -231.27078247 155.29014587 C-235.66131606 155.30345477 -240.05176315 155.30412374 -244.44231296 155.30158257 C-248.12002655 155.30050751 -251.79772303 155.30540975 -255.47543293 155.310188 C-264.15721916 155.32125474 -272.8389621 155.32173632 -281.52075195 155.31567383 C-290.4509175 155.30963344 -299.38092551 155.32195323 -308.31106418 155.3432439 C-316.00398902 155.3609045 -323.6968639 155.36685431 -331.38980824 155.36360615 C-335.97316184 155.36180055 -340.556403 155.36435705 -345.13973808 155.37832069 C-349.4515393 155.3909676 -353.76309615 155.38889062 -358.07489395 155.37590981 C-359.64855726 155.37355949 -361.22223815 155.37622265 -362.79588127 155.38453293 C-379.82488694 155.46791207 -394.16383665 152.29515578 -406.8671875 140.3203125 C-422.09411969 123.75474891 -422.15888826 105.24605266 -422.1328125 84.09765625 C-422.13348698 82.16857389 -422.13445821 80.23949162 -422.13571167 78.31040955 C-422.13717939 74.28692813 -422.13506232 70.26346904 -422.13037109 66.23999023 C-422.12464739 61.07945787 -422.12797528 55.91897721 -422.13394356 50.75844669 C-422.13755131 46.7839875 -422.13641006 42.80954066 -422.13381577 38.8350811 C-422.13314848 36.93124828 -422.133968 35.02741435 -422.13629532 33.12358284 C-422.13882824 30.47176242 -422.13497338 27.82002696 -422.12939453 25.16821289 C-422.13141876 24.38119492 -422.13344299 23.59417694 -422.13552856 22.78330994 C-422.12304721 19.58884137 -422.01776828 17.05330485 -421 14 C-416.60343827 13.97534496 -412.2069128 13.95716158 -407.81030273 13.94506836 C-406.31355082 13.94002879 -404.81680384 13.93319713 -403.32006836 13.92456055 C-401.17300193 13.91247841 -399.02600038 13.90676809 -396.87890625 13.90234375 C-394.93866577 13.89448853 -394.93866577 13.89448853 -392.95922852 13.88647461 C-390 14 -390 14 -389 15 C-388.8960271 17.81831199 -388.8563886 20.61291933 -388.8581543 23.43188477 C-388.85467987 24.31650894 -388.85120544 25.20113312 -388.84762573 26.11256409 C-388.840253 28.04144723 -388.83491574 29.97033895 -388.83133507 31.89923286 C-388.82418595 34.95542952 -388.80852896 38.01146408 -388.78999329 41.06761169 C-388.73746587 49.75997628 -388.68958395 58.45225569 -388.67407227 67.14477539 C-388.66397074 72.45642933 -388.63458427 77.76768112 -388.59275246 83.07917595 C-388.58046154 85.10165294 -388.5753177 87.12418681 -388.57755089 89.14669991 C-388.57991302 91.98568433 -388.55766579 94.82352417 -388.5300293 97.66235352 C-388.53663071 98.49228821 -388.54323212 99.3222229 -388.55003357 100.17730713 C-388.44025023 107.07773973 -386.56364966 112.50208495 -381.5625 117.375 C-376.73564112 120.4359349 -372.97834419 121.25129168 -367.26445007 121.26742554 C-366.26808012 121.27422221 -366.26808012 121.27422221 -365.25158149 121.28115618 C-363.03312812 121.29378303 -360.8149208 121.29218095 -358.59643555 121.29052734 C-357.00278407 121.29651371 -355.4091355 121.30331951 -353.81549072 121.31088257 C-349.49099187 121.32853963 -345.16657219 121.33323785 -340.84204078 121.33451414 C-338.13850378 121.33593656 -335.43498686 121.3402079 -332.73145485 121.34550858 C-323.29467111 121.36400847 -313.85794385 121.37217931 -304.42114258 121.37060547 C-295.63299079 121.36940435 -286.84508471 121.39050096 -278.05699509 121.4220928 C-270.50522767 121.44827011 -262.95354041 121.45897214 -255.40172797 121.45769465 C-250.89438062 121.45718541 -246.38725162 121.46284755 -241.87994957 121.48405075 C-237.63877273 121.50345751 -233.39802197 121.50354111 -229.15682983 121.48901749 C-227.60406177 121.48693124 -226.05126687 121.49161933 -224.49854469 121.5037384 C-211.97849664 121.72763506 -211.97849664 121.72763506 -201.46036816 115.51727867 C-198.04972549 111.66279461 -196.89354123 108.57060272 -196.79467773 103.52856445 C-196.77473251 102.62785721 -196.75478729 101.72714996 -196.73423767 100.79914856 C-196.71752518 99.83031235 -196.70081268 98.86147614 -196.68359375 97.86328125 C-196.6524221 96.37141548 -196.6524221 96.37141548 -196.62062073 94.84941101 C-196.55520588 91.67051133 -196.4962776 88.49152866 -196.4375 85.3125 C-196.39430712 83.15819452 -196.35069258 81.00389746 -196.30664062 78.84960938 C-196.19953274 73.56649412 -196.09775127 68.28329621 -196 63 C-193.089478 61.544739 -190.52443589 61.87014113 -187.27734375 61.8671875 C-186.61666397 61.86623077 -185.95598419 61.86527405 -185.27528381 61.86428833 C-183.87907821 61.86360784 -182.48286944 61.865453 -181.08666992 61.86962891 C-178.94247386 61.87498757 -176.79848647 61.86967521 -174.65429688 61.86328125 C-173.2994787 61.86394189 -171.94466066 61.86522275 -170.58984375 61.8671875 C-169.35097412 61.86831543 -168.11210449 61.86944336 -166.83569336 61.87060547 C-164 62 -164 62 -163 63 C-162.89360161 64.34398835 -162.85383316 65.69336001 -162.84228516 67.04150391 C-162.82689194 68.32886948 -162.82689194 68.32886948 -162.81118774 69.64224243 C-162.80388641 70.57756805 -162.79658508 71.51289368 -162.7890625 72.4765625 C-162.76097703 74.44662265 -162.73231247 76.41667462 -162.703125 78.38671875 C-162.66196744 81.50048448 -162.62509262 84.61410015 -162.59863281 87.72802734 C-162.57091408 90.72786372 -162.52502188 93.72699882 -162.4765625 96.7265625 C-162.4716832 98.11133286 -162.4716832 98.11133286 -162.46670532 99.52407837 C-162.33595139 106.44720091 -161.24101941 111.26097628 -156.75 116.75 C-151.11249796 121.36250167 -146.17394921 122.55177527 -139 121.9375 C-138.29447998 121.88150635 -137.58895996 121.8255127 -136.86206055 121.76782227 C-130.68593052 121.16406481 -126.7698564 120.28088202 -122.65644836 115.40856934 C-118.62177501 109.59532835 -118.26586287 104.6709048 -118.29296875 97.71875 C-118.27784744 96.66465942 -118.26272614 95.61056885 -118.24714661 94.52453613 C-118.20441873 91.18280393 -118.19544562 87.84197765 -118.1875 84.5 C-118.16434424 82.2239345 -118.13897667 79.94789036 -118.11132812 77.671875 C-118.04862325 72.11457459 -118.01357086 66.55762606 -118 61 C-113.77085156 58.88542578 -108.22100194 59.81414172 -103.56884766 59.81469727 C-101.50792873 59.81250842 -99.4475431 59.79434017 -97.38671875 59.77539062 C-96.09378906 59.77345703 -94.80085938 59.77152344 -93.46875 59.76953125 C-92.27701172 59.76542236 -91.08527344 59.76131348 -89.85742188 59.75708008 C-87 60 -87 60 -85 62 C-84.74171448 63.98443604 -84.74171448 63.98443604 -84.72875977 66.44628906 C-84.71347984 67.82847626 -84.71347984 67.82847626 -84.69789124 69.23858643 C-84.69575119 70.23750916 -84.69361115 71.23643188 -84.69140625 72.265625 C-84.66623819 74.37370059 -84.64084029 76.48177344 -84.61523438 78.58984375 C-84.586524 81.91877486 -84.56251323 85.24765827 -84.54370117 88.57666016 C-84.52200854 91.78573929 -84.48255499 94.99424493 -84.44140625 98.203125 C-84.44123253 99.68936371 -84.44123253 99.68936371 -84.4410553 101.20562744 C-84.35409686 107.29501607 -83.78374024 111.94803478 -79.5 116.64453125 C-74.11865305 120.83469463 -69.86777924 121.25323627 -63.234375 121.55078125 C-62.31960388 121.59262039 -61.40483276 121.63445953 -60.46234131 121.67756653 C-48.40487033 122.17279251 -36.34128 122.18604098 -24.27539062 122.18530273 C-20.89024726 122.18519976 -17.50530728 122.19904214 -14.12021255 122.21607494 C-10.83535797 122.22990908 -7.55050474 122.22928283 -4.265625 122.23046875 C-3.06552795 122.23765427 -1.86543091 122.24483978 -0.62896729 122.25224304 C10.59589694 122.24041984 10.59589694 122.24041984 20.875 118.25 C24.39545613 114.52245821 26 111.68900961 26 106.5 C24.83387898 102.41857643 23.26028466 99.67096832 20 97 C13.38180829 93.85523531 7.54026637 93.53235633 0.28125 93.48828125 C-1.366474 93.46135445 -1.366474 93.46135445 -3.04748535 93.43388367 C-6.53161868 93.38000803 -10.01561679 93.3459574 -13.5 93.3125 C-15.87241455 93.27930692 -18.24481132 93.24481544 -20.6171875 93.20898438 C-26.41133702 93.12429469 -32.20550454 93.05584906 -38 93 C-37.48079374 88.39770155 -36.64731517 84.64331361 -34.69140625 80.44921875 C-34.200354 79.37881348 -33.70930176 78.3084082 -33.20336914 77.20556641 C-32.66188232 76.04460449 -32.12039551 74.88364258 -31.5625 73.6875 C-30.37898791 71.10838332 -29.2044503 68.52522759 -28.03125 65.94140625 C-27.71571671 65.24778992 -27.40018341 64.55417358 -27.0750885 63.83953857 C-22.76517061 54.32866509 -18.67098666 44.72411048 -14.5625 35.125 C-14.18054474 34.23525482 -13.79858948 33.34550964 -13.40505981 32.42880249 C-12.29000431 29.83106277 -11.17771218 27.23215821 -10.06640625 24.6328125 C-9.58409546 23.50884315 -9.58409546 23.50884315 -9.09204102 22.36216736 C-5.93466775 14.95333547 -2.99385759 7.48464398 0 0 Z " fill="#FFFFFF" transform="translate(1051,19)"/>
<path d="M0 0 C1.57297852 -0.00386719 1.57297852 -0.00386719 3.17773438 -0.0078125 C4.26248047 -0.00007813 5.34722656 0.00765625 6.46484375 0.015625 C8.09776367 0.00402344 8.09776367 0.00402344 9.76367188 -0.0078125 C11.3347168 -0.00394531 11.3347168 -0.00394531 12.9375 0 C14.36654663 0.00338379 14.36654663 0.00338379 15.82446289 0.00683594 C18.50478719 0.27590912 20.05636695 1.01049733 22.40234375 2.265625 C22.45341702 8.90011271 22.48823276 15.53454895 22.51220703 22.16918945 C22.52221082 24.42213841 22.53581811 26.67507457 22.55322266 28.92797852 C22.57771973 32.18248675 22.58888341 35.43682203 22.59765625 38.69140625 C22.60797882 39.68457352 22.61830139 40.67774078 22.62893677 41.70100403 C22.63141548 57.45592446 18.43468984 69.76261568 7.40234375 81.265625 C-4.0458826 91.32245153 -16.10550724 95.40765611 -31.1003418 95.42675781 C-32.03939865 95.43172272 -32.97845551 95.43668762 -33.94596863 95.44180298 C-37.04211165 95.4563663 -40.1382034 95.46321736 -43.234375 95.46875 C-45.39663188 95.47450683 -47.55888876 95.48026449 -49.72114563 95.48602295 C-54.2528202 95.49651677 -58.78447711 95.50236984 -63.31616211 95.50585938 C-69.10162615 95.51133659 -74.88685397 95.53535515 -80.67224407 95.56383133 C-85.13943649 95.58252547 -89.60657282 95.58766694 -94.07380104 95.58919525 C-96.20548606 95.59220768 -98.33717043 95.60018815 -100.46881676 95.61338043 C-119.26201991 95.7213737 -134.15230135 93.99937903 -148.33984375 80.5234375 C-158.11424958 70.74903167 -161.76663197 61.84688744 -161.91015625 48.078125 C-161.95366211 46.7159082 -161.95366211 46.7159082 -161.99804688 45.32617188 C-162.05936956 38.73634158 -160.74520704 34.03173245 -157.59765625 28.265625 C-157.06785156 27.27433594 -156.53804688 26.28304687 -155.9921875 25.26171875 C-148.80290856 13.6346133 -139.07885547 5.69157551 -125.6953125 2.109375 C-118.89892622 0.7021937 -111.93952568 1.05414702 -105.03515625 1.140625 C-103.63086578 1.15067765 -102.22656832 1.15979945 -100.82226562 1.16796875 C-97.4138814 1.19139407 -94.00586125 1.22419754 -90.59765625 1.265625 C-91.17658034 5.4920445 -92.17183315 9.09786907 -93.8125 13.03125 C-94.25142578 14.08570312 -94.69035156 15.14015625 -95.14257812 16.2265625 C-95.8319043 17.85464844 -95.8319043 17.85464844 -96.53515625 19.515625 C-96.99083984 20.61648437 -97.44652344 21.71734375 -97.91601562 22.8515625 C-101.33637979 31.00434854 -101.33637979 31.00434854 -103.59765625 33.265625 C-106.13671875 33.5390625 -106.13671875 33.5390625 -109.22265625 33.640625 C-116.23261627 34.12812822 -120.92516103 35.73018082 -126.03515625 40.578125 C-128.00342843 43.96355315 -128.52893647 46.34859745 -128.59765625 50.265625 C-126.9368272 54.97130731 -124.71093475 57.48916202 -120.59765625 60.265625 C-116.80718026 61.529117 -113.21461696 61.47524137 -109.26171875 61.53442383 C-108.41088211 61.5507486 -107.56004547 61.56707336 -106.6834259 61.58389282 C-103.86323582 61.63596729 -101.04300658 61.68018597 -98.22265625 61.72265625 C-97.25723907 61.73776434 -96.2918219 61.75287243 -95.29714966 61.76843834 C-90.18173131 61.8475936 -85.06626386 61.92019632 -79.95068359 61.98803711 C-74.68610247 62.05928814 -69.4222343 62.15431704 -64.15814209 62.25481129 C-60.09514079 62.32777957 -56.0320359 62.38224302 -51.96868896 62.43189049 C-50.02949109 62.4588385 -48.0903759 62.49272598 -46.15142822 62.53391457 C-31.37616073 63.05788974 -31.37616073 63.05788974 -17.59765625 58.265625 C-14.98854662 55.9472394 -14.98854662 55.9472394 -13.59765625 53.265625 C-13.24458405 52.65241394 -12.89151184 52.03920288 -12.52774048 51.40740967 C-11.46182376 48.95283187 -11.321866 47.16662935 -11.27880859 44.49707031 C-11.2589389 43.55639709 -11.23906921 42.61572388 -11.21859741 41.64654541 C-11.2070462 40.63912292 -11.195495 39.63170044 -11.18359375 38.59375 C-11.1642276 37.55619568 -11.14486145 36.51864136 -11.12490845 35.449646 C-11.06516783 32.13838908 -11.01874895 28.82709729 -10.97265625 25.515625 C-10.93447143 23.26951616 -10.8954194 21.02342188 -10.85546875 18.77734375 C-10.75947083 13.27356685 -10.67440709 7.76970212 -10.59765625 2.265625 C-6.91966577 0.58344654 -4.03482002 0.00954261 0 0 Z " fill="#FFFFFF" transform="translate(599.59765625,78.734375)"/>
<path d="M0 0 C1.43423844 0.01006483 2.86848383 0.0191844 4.30273438 0.02734375 C7.76464338 0.04732014 11.22555346 0.08651017 14.6875 0.125 C14.6875 5.735 14.6875 11.345 14.6875 17.125 C11.93019531 17.14626953 11.93019531 17.14626953 9.1171875 17.16796875 C-21.48086483 17.6482211 -46.44779097 23.19622764 -69.1875 44.625 C-84.96440718 61.37100467 -93.15093445 83.01506687 -92.69580078 105.84350586 C-92.46085557 112.09994495 -92.03797704 118.08170242 -90.3125 124.125 C-90.12413574 124.78564453 -89.93577148 125.44628906 -89.74169922 126.12695312 C-82.86789732 149.66779378 -69.80509428 167.79269762 -48.3125 180.125 C-47.38824219 180.66125 -46.46398437 181.1975 -45.51171875 181.75 C-32.30581161 188.89798763 -18.84811391 190.72560953 -4.09375 190.734375 C-2.61444338 190.74941142 -1.1351532 190.76614964 0.34411621 190.78448486 C4.17768258 190.82755973 8.01102297 190.84802164 11.8447876 190.86322021 C15.78077237 190.8830114 19.71652045 190.92495378 23.65234375 190.96484375 C31.33066455 191.03949427 39.00888405 191.09017591 46.6875 191.125 C45.47594898 187.65607797 44.96178746 186.3307156 41.9375 184.0625 C36.52021453 179.90969148 32.83270301 171.79262641 31.6875 165.125 C30.76104265 152.92917614 32.8409315 145.4712834 40.125 135.8515625 C41.6875 134.125 41.6875 134.125 43.8125 132.7734375 C46.40975184 130.49002026 46.38948404 128.47767954 46.6875 125.125 C45.60480835 125.13285522 45.60480835 125.13285522 44.50024414 125.14086914 C41.25017151 125.16157358 38.00011272 125.17463918 34.75 125.1875 C33.04553711 125.20006836 33.04553711 125.20006836 31.30664062 125.21289062 C30.22705078 125.21611328 29.14746094 125.21933594 28.03515625 125.22265625 C26.53480835 125.23051147 26.53480835 125.23051147 25.00415039 125.23852539 C22.6875 125.125 22.6875 125.125 21.6875 124.125 C21.61430379 121.42845146 21.59507463 118.75808542 21.625 116.0625 C21.62951172 115.30388672 21.63402344 114.54527344 21.63867188 113.76367188 C21.6504932 111.88408129 21.66842922 110.00453101 21.6875 108.125 C27.65063166 108.10035426 33.61373395 108.082166 39.5769043 108.07006836 C41.60718298 108.06502722 43.63745802 108.05819443 45.66772461 108.04956055 C48.57927347 108.03748533 51.4907745 108.03176966 54.40234375 108.02734375 C55.77264992 108.01960182 55.77264992 108.01960182 57.17063904 108.01170349 C59.34325427 108.01150832 61.51577296 108.06288195 63.6875 108.125 C64.6875 109.125 64.6875 109.125 64.80102539 111.80883789 C64.79578857 112.97664795 64.79055176 114.14445801 64.78515625 115.34765625 C64.78193359 116.60771484 64.77871094 117.86777344 64.77539062 119.16601562 C64.76703403 120.50651109 64.75856907 121.84700588 64.75 123.1875 C64.7449866 124.53189942 64.74042342 125.8763006 64.73632812 127.22070312 C64.72449488 130.52217941 64.70800971 133.82356803 64.6875 137.125 C63.94056885 137.36806885 63.1936377 137.6111377 62.42407227 137.86157227 C60.94765259 138.36515259 60.94765259 138.36515259 59.44140625 138.87890625 C58.4676001 139.2044751 57.49379395 139.53004395 56.49047852 139.86547852 C51.15610425 142.26248547 48.20420073 146.61914661 45.25 151.5 C43.81828569 158.18133343 43.89629778 164.30128462 47.3671875 170.30859375 C50.87543483 175.13502869 54.72673831 178.01169135 60.42578125 179.79296875 C61.62714722 180.17424927 61.62714722 180.17424927 62.8527832 180.56323242 C63.45823975 180.74861572 64.06369629 180.93399902 64.6875 181.125 C64.71636338 185.60415328 64.73425187 190.08328291 64.75 194.5625 C64.75837891 195.84189453 64.76675781 197.12128906 64.77539062 198.43945312 C64.77861328 199.65439453 64.78183594 200.86933594 64.78515625 202.12109375 C64.79039307 203.24700928 64.79562988 204.3729248 64.80102539 205.53295898 C64.6875 208.125 64.6875 208.125 63.6875 209.125 C61.27862637 209.24665773 58.89790825 209.30359513 56.48754883 209.31787109 C55.73270203 209.32604858 54.97785522 209.33422607 54.20013428 209.34265137 C51.68160792 209.36760857 49.16313944 209.38407086 46.64453125 209.3984375 C45.34663949 209.40642302 45.34663949 209.40642302 44.02252769 209.41456985 C39.41956849 209.44137902 34.81663678 209.46070625 30.21362305 209.47509766 C26.44188399 209.488294 22.67070452 209.51586305 18.89916992 209.55712891 C-18.92078056 209.96183947 -51.3556377 206.16279859 -79.92260742 178.79589844 C-85.47261043 173.35670651 -90.20303775 167.75087371 -94.3125 161.125 C-94.90675781 160.19042969 -95.50101563 159.25585938 -96.11328125 158.29296875 C-110.32896598 135.06691425 -114.66545171 105.68889652 -108.3125 79.125 C-100.74492995 51.73896347 -83.09594179 27.4372918 -58.23632812 13.16699219 C-39.72339593 3.13993703 -20.89311573 -0.25905606 0 0 Z " fill="#FDFBFA" transform="translate(171.3125,59.875)"/>
<path d="M0 0 C2.26828001 0.00747325 4.53656654 0.01316105 6.80485535 0.01715088 C12.73473371 0.03232183 18.66421149 0.07152916 24.59393311 0.1159668 C30.66087427 0.15710481 36.72788103 0.17520127 42.79492188 0.1953125 C54.66944548 0.2380324 66.54367363 0.30617893 78.41796875 0.390625 C78.41796875 6.330625 78.41796875 12.270625 78.41796875 18.390625 C76.56873558 18.39609344 76.56873558 18.39609344 74.68214417 18.40167236 C63.04431987 18.43866904 51.40675904 18.49649311 39.76913548 18.57452774 C33.78659048 18.61397847 27.80419216 18.64617894 21.8215332 18.66162109 C16.04418264 18.67680321 10.26723536 18.71127716 4.49006462 18.75893402 C2.28978932 18.77373164 0.08945644 18.78166508 -2.11086845 18.78250885 C-5.20121761 18.78488506 -8.29045818 18.81201848 -11.38061523 18.84472656 C-12.73468979 18.83718102 -12.73468979 18.83718102 -14.11611938 18.82948303 C-22.7467346 18.9701224 -31.34858565 22.23490317 -37.58203125 28.390625 C-39.58253227 31.25606413 -41.12667008 34.21839245 -42.58203125 37.390625 C-43.01515625 38.31875 -43.44828125 39.246875 -43.89453125 40.203125 C-45.99853069 49.95803152 -44.62019311 57.87692385 -39.89453125 66.453125 C-34.53566417 73.26033454 -28.39641164 78.3988421 -19.56332397 79.68443298 C-17.50429532 79.81108453 -15.46127808 79.85759172 -13.3984375 79.8671875 C-12.65746323 79.88276703 -11.91648895 79.89834656 -11.15306091 79.91439819 C-8.81689309 79.96143896 -6.48101866 79.98954867 -4.14453125 80.015625 C-1.78325256 80.05213343 0.57786002 80.09265039 2.9389801 80.13827515 C4.40123171 80.16549 5.86360628 80.18684651 7.32603455 80.20181274 C12.30722156 80.27987781 12.30722156 80.27987781 13.41796875 81.390625 C13.49122043 84.25330067 13.5103508 87.091344 13.48046875 89.953125 C13.47595703 90.75943359 13.47144531 91.56574219 13.46679688 92.39648438 C13.45497393 94.39456256 13.43703789 96.39260283 13.41796875 98.390625 C8.47415379 98.46543828 3.53067686 98.51953654 -1.41357422 98.55541992 C-3.09136708 98.57039734 -4.76912153 98.59078654 -6.44677734 98.61694336 C-23.75096704 98.87975267 -37.49980605 95.89333961 -50.58203125 83.58203125 C-60.54355421 72.66715941 -64.04001122 58.59335023 -63.796875 44.18359375 C-63.04243887 30.86436679 -55.95942917 20.45294235 -46.58203125 11.390625 C-32.73007098 -0.68662489 -17.36418635 -0.16903416 0 0 Z " fill="#FEFCFB" transform="translate(179.58203125,116.609375)"/>
<path d="M0 0 C1.29541718 0.0028299 2.59083435 0.00565979 3.92550659 0.00857544 C7.33508315 0.01613642 10.7444837 0.03571804 14.1539917 0.0579834 C17.64690776 0.07860623 21.13985284 0.08761195 24.6328125 0.09765625 C31.46100886 0.11897277 38.28908968 0.15301514 45.1171875 0.1953125 C45.14405303 2.17440648 45.16352125 4.15360221 45.1796875 6.1328125 C45.19128906 7.23496094 45.20289063 8.33710937 45.21484375 9.47265625 C45.1171875 12.1953125 45.1171875 12.1953125 44.1171875 13.1953125 C42.46799372 13.30788266 40.8140786 13.35209232 39.16113281 13.36889648 C38.10202698 13.38238632 37.04292114 13.39587616 35.95172119 13.40977478 C34.79460632 13.42021317 33.63749146 13.43065155 32.4453125 13.44140625 C30.00129905 13.47438504 27.55728871 13.50759592 25.11328125 13.54101562 C21.25604742 13.58815037 17.39882234 13.63248747 13.54150391 13.67211914 C9.82179329 13.71224262 6.10236374 13.76373045 2.3828125 13.81640625 C1.2499884 13.8248204 0.11716431 13.83323456 -1.04998779 13.84190369 C-19.00408648 14.11429263 -34.68021173 17.79785174 -48.8828125 29.1953125 C-49.56601563 29.70449219 -50.24921875 30.21367188 -50.953125 30.73828125 C-59.48492783 37.51353644 -66.38063442 47.9016178 -69.8828125 58.1953125 C-70.21732422 59.16210938 -70.21732422 59.16210938 -70.55859375 60.1484375 C-74.7284911 75.01256138 -71.96988343 91.21042079 -64.6328125 104.5078125 C-54.1518636 121.16700495 -38.87419337 131.30805157 -19.96875 136.3125 C-12.87705532 137.81215844 -5.54076665 137.66727936 1.6796875 137.8203125 C3.18035926 137.85857096 4.6810109 137.89762701 6.18164062 137.9375 C9.82663694 138.03263446 13.47178704 138.11697158 17.1171875 138.1953125 C17.1171875 142.4853125 17.1171875 146.7753125 17.1171875 151.1953125 C-14.54060797 151.62668292 -42.67404927 148.6286646 -66.35058594 125.75976562 C-80.96795885 110.83495275 -87.23357746 92.59553222 -87.03125 72.0390625 C-86.25082693 51.83021253 -76.47401838 34.92215922 -61.8828125 21.1953125 C-44.05619758 6.60786244 -22.81719265 -0.19010772 0 0 Z " fill="#FDFBFA" transform="translate(174.8828125,89.8046875)"/>
<path d="M0 0 C10.23 0 20.46 0 31 0 C32.03815513 3.1144654 32.12679585 5.27522417 32.12939453 8.54125977 C32.13254669 9.67576065 32.13569885 10.81026154 32.13894653 11.97914124 C32.13591019 13.81671242 32.13591019 13.81671242 32.1328125 15.69140625 C32.13376923 16.94759262 32.13472595 18.20377899 32.13571167 19.49803162 C32.13639264 22.15521684 32.13504479 24.81231029 32.13037109 27.46948242 C32.12466818 30.87819623 32.12795851 34.2868314 32.13394356 37.69554234 C32.13842124 40.94416649 32.13528858 44.19278107 32.1328125 47.44140625 C32.13483673 48.66847794 32.13686096 49.89554962 32.13894653 51.1598053 C32.13421829 52.85682838 32.13421829 52.85682838 32.12939453 54.58813477 C32.12859894 55.5872438 32.12780334 56.58635284 32.12698364 57.61573792 C32 60 32 60 31 62 C-0.68 62 -32.36 62 -65 62 C-63.90991505 55.45949027 -61.77572898 50.33108152 -59.125 44.3125 C-58.67769531 43.26771484 -58.23039063 42.22292969 -57.76953125 41.14648438 C-57.33253906 40.14552734 -56.89554688 39.14457031 -56.4453125 38.11328125 C-56.04844238 37.20360596 -55.65157227 36.29393066 -55.24267578 35.35668945 C-53.99211792 32.98505193 -53.08127483 31.66493884 -51 30 C-48.77900696 29.60127258 -48.77900696 29.60127258 -46.16137695 29.56762695 C-44.69019157 29.53793571 -44.69019157 29.53793571 -43.18928528 29.50764465 C-41.60478828 29.49805977 -41.60478828 29.49805977 -39.98828125 29.48828125 C-38.36323921 29.46135445 -38.36323921 29.46135445 -36.70536804 29.43388367 C-33.24111843 29.37965015 -29.77700762 29.34584256 -26.3125 29.3125 C-23.96547542 29.27933851 -21.61846919 29.24484996 -19.27148438 29.20898438 C-13.51444738 29.12391626 -7.7573927 29.05562168 -2 29 C-1.96241577 27.84213989 -1.96241577 27.84213989 -1.92407227 26.66088867 C-1.80815993 23.16958819 -1.68541176 19.67856078 -1.5625 16.1875 C-1.52318359 14.97255859 -1.48386719 13.75761719 -1.44335938 12.50585938 C-1.38051758 10.76079102 -1.38051758 10.76079102 -1.31640625 8.98046875 C-1.27974854 7.90692139 -1.24309082 6.83337402 -1.20532227 5.72729492 C-1 3 -1 3 0 0 Z " fill="#FFFFFF" transform="translate(815,20)"/>
<path d="M0 0 C1.1702623 0.00222061 2.3405246 0.00444122 3.54624939 0.00672913 C4.19013107 0.0065831 4.83401276 0.00643707 5.49740601 0.00628662 C7.63473327 0.00698567 9.77197438 0.01477761 11.9092865 0.02259827 C13.3875931 0.02446248 14.86590032 0.02588637 16.34420776 0.02688599 C20.24211827 0.03071093 24.13999174 0.040541 28.03788757 0.05158997 C32.01259358 0.0618046 35.98730554 0.06638372 39.96202087 0.07142639 C47.76607425 0.0821633 55.57009707 0.09923942 63.37413025 0.12025452 C64.99940874 3.37081151 64.51664983 6.92709901 64.49913025 10.49525452 C64.50299744 11.24419983 64.50686462 11.99314514 64.510849 12.76478577 C64.49981688 19.30683079 63.92253487 25.53939902 63.37413025 32.12025452 C37.30413025 32.12025452 11.23413025 32.12025452 -15.62586975 32.12025452 C-14.83233262 27.35903172 -14.05588714 24.36784202 -12.15711975 20.10072327 C-11.66856506 18.99664124 -11.18001038 17.8925592 -10.676651 16.75502014 C-10.16489319 15.61742249 -9.65313538 14.47982483 -9.12586975 13.30775452 C-8.61411194 12.15082092 -8.10235413 10.99388733 -7.5750885 9.80189514 C-3.27913637 0.15017156 -3.27913637 0.15017156 0 0 Z " fill="#FFFFFF" transform="translate(918.6258697509766,182.87974548339844)"/>
<path d="M0 0 C0.79719955 0.00222061 1.59439911 0.00444122 2.41575623 0.00672913 C3.31661453 0.00680466 4.21747284 0.00688019 5.14562988 0.00695801 C6.12478867 0.01211929 7.10394745 0.01728058 8.11277771 0.02259827 C9.11018478 0.02401321 10.10759186 0.02542816 11.13522339 0.02688599 C14.3348027 0.03250337 17.53431315 0.04505881 20.73387146 0.05775452 C22.89728191 0.06276728 25.06069345 0.06733057 27.22410583 0.07142639 C32.53988471 0.08247845 37.85562317 0.09923348 43.17137146 0.12025452 C43.31980896 3.51087952 43.31980896 3.51087952 43.17137146 7.12025452 C40.79637146 8.87025452 40.79637146 8.87025452 38.17137146 10.12025452 C35.82968382 13.63278598 35.67513469 14.98494807 36.17137146 19.12025452 C38.26395997 22.2952164 39.99828432 24.00486309 43.17137146 26.12025452 C43.17137146 28.10025452 43.17137146 30.08025452 43.17137146 32.12025452 C24.03137146 32.12025452 4.89137146 32.12025452 -14.82862854 32.12025452 C-14.03509141 27.35903172 -13.25864593 24.36784202 -11.35987854 20.10072327 C-10.87132385 18.99664124 -10.38276917 17.8925592 -9.87940979 16.75502014 C-9.36765198 15.61742249 -8.85589417 14.47982483 -8.32862854 13.30775452 C-7.81687073 12.15082092 -7.30511292 10.99388733 -6.77784729 9.80189514 C-2.48787569 0.16360802 -2.48787569 0.16360802 0 0 Z " fill="#FFFFFF" transform="translate(523.8286285400391,79.87974548339844)"/>
<path d="M0 0 C3.63 0 7.26 0 11 0 C10.45635076 5.60443791 8.94630238 10.04671884 6.640625 15.16015625 C6.12931786 16.32242737 6.12931786 16.32242737 5.60768127 17.50817871 C4.49634512 20.0298572 3.37317825 22.54607686 2.25 25.0625 C1.47652835 26.81265924 0.70399461 28.56323327 -0.06762695 30.31420898 C-1.62777253 33.85292085 -3.19165869 37.38994103 -4.75830078 40.92578125 C-7.66820227 47.50174559 -10.52966812 54.09842434 -13.38220215 60.69943237 C-14.15768876 62.49353129 -14.93476966 64.28694083 -15.71191406 66.08032227 C-16.43266113 67.74405884 -16.43266113 67.74405884 -17.16796875 69.44140625 C-17.63122559 70.50633301 -18.09448242 71.57125977 -18.57177734 72.66845703 C-19.59865931 75.06381282 -20.6032201 77.46219989 -21.58837891 79.87451172 C-21.85370926 80.51589584 -22.11903961 81.15727997 -22.39241028 81.81809998 C-23.13426326 83.61431794 -23.86684877 85.4143553 -24.59887695 87.21459961 C-26 90 -26 90 -29 92 C-31.26171875 92.1953125 -31.26171875 92.1953125 -33.6875 92.125 C-34.49574219 92.10695313 -35.30398438 92.08890625 -36.13671875 92.0703125 C-36.75160156 92.04710938 -37.36648438 92.02390625 -38 92 C-38.95394723 89.44983301 -39.07248206 88.22835447 -38.23754883 85.59790039 C-37.81497803 84.69031982 -37.39240723 83.78273926 -36.95703125 82.84765625 C-36.46984619 81.78297119 -35.98266113 80.71828613 -35.48071289 79.62133789 C-34.93020264 78.44692139 -34.37969238 77.27250488 -33.8125 76.0625 C-32.93260964 74.14986407 -32.05721494 72.23520533 -31.18174744 70.32054138 C-30.53780053 68.91315536 -29.89245501 67.5064086 -29.24586487 66.10023499 C-25.0438867 56.95298591 -20.96995127 47.74864103 -16.88754272 38.5475769 C-15.58750622 35.6188344 -14.28491061 32.6912426 -12.98168945 29.76391602 C-8.58171511 19.87287651 -4.22312546 9.9680123 0 0 Z " fill="#FFFFFF" transform="translate(1037,20)"/>
<path d="M0 0 C1.98 0 3.96 0 6 0 C9.63 13.86 13.26 27.72 17 42 C20.96 28.14 24.92 14.28 29 0 C30.98 0 32.96 0 35 0 C36.25247093 4.04090511 37.50196886 8.08272147 38.75 12.125 C39.11617432 13.31085693 39.48234863 14.49671387 39.85961914 15.71850586 C42.11175947 23.0380872 44.29197429 30.36566366 46.30859375 37.75390625 C46.79238204 39.94830862 46.79238204 39.94830862 48 41 C51.3 27.47 54.6 13.94 58 0 C59.98 0 61.96 0 64 0 C63.2808695 6.13682868 61.82741982 11.98957546 60.27734375 17.96484375 C60.01240616 18.99815323 59.74746857 20.03146271 59.47450256 21.09608459 C58.63231762 24.37746311 57.78498696 27.6574873 56.9375 30.9375 C56.36359145 33.16983428 55.79002005 35.40225526 55.21679688 37.63476562 C53.81510031 43.0908538 52.40918312 48.54584093 51 54 C49.02 54 47.04 54 45 54 C40.55125548 40.03452727 36.24437963 26.02886022 32 12 C31.64172119 13.2367749 31.28344238 14.4735498 30.91430664 15.74780273 C29.58880822 20.32021049 28.25905093 24.89137028 26.92797852 29.4621582 C26.35161257 31.44358889 25.77641454 33.42535969 25.20239258 35.4074707 C24.37885769 38.25040693 23.55118074 41.09210825 22.72265625 43.93359375 C22.46533218 44.82525742 22.20800812 45.71692108 21.94288635 46.63560486 C21.70271286 47.45638016 21.46253937 48.27715546 21.21508789 49.12280273 C21.00412979 49.84894272 20.79317169 50.5750827 20.57582092 51.32322693 C20 53 20 53 19 54 C17.00041636 54.04080783 14.99954746 54.04254356 13 54 C11.14357403 46.79303342 9.29273083 39.58465005 7.44580078 32.37524414 C6.81655935 29.92178731 6.18603064 27.46866026 5.55419922 25.01586914 C4.64734369 21.49450785 3.7450924 17.97199466 2.84375 14.44921875 C2.55939087 13.34913986 2.27503174 12.24906097 1.98205566 11.11564636 C1.72178589 10.09481461 1.46151611 9.07398285 1.19335938 8.0222168 C0.96241577 7.12286911 0.73147217 6.22352142 0.49353027 5.29692078 C0 3 0 3 0 0 Z " fill="#FFFFFF" transform="translate(440,257)"/>
<path d="M0 0 C1.98 0 3.96 0 6 0 C6.29769287 1.20648193 6.59538574 2.41296387 6.90209961 3.65600586 C8.0036915 8.11652514 9.10989808 12.57588902 10.2175293 17.03491211 C10.69698775 18.96786617 11.17518082 20.90113455 11.65209961 22.8347168 C12.33638277 25.60808875 13.02515442 28.38031198 13.71484375 31.15234375 C13.92842026 32.02213364 14.14199677 32.89192352 14.36204529 33.78807068 C15.04965602 37.70967374 15.04965602 37.70967374 17 41 C20.96 27.47 24.92 13.94 29 0 C30.98 0 32.96 0 35 0 C36.22865958 4.07048872 37.45537315 8.1415577 38.68041992 12.21313477 C39.09592358 13.59317183 39.51192456 14.97305927 39.9284668 16.3527832 C42.39939576 24.53866458 44.80959849 32.73349218 47 41 C47.33 41 47.66 41 48 41 C51.3 27.47 54.6 13.94 58 0 C59.98 0 61.96 0 64 0 C62.76840983 7.2527399 61.25306815 14.36280557 59.3984375 21.48046875 C59.0364476 22.88876701 59.0364476 22.88876701 58.66714478 24.32551575 C57.90672647 27.28046053 57.14096652 30.23398912 56.375 33.1875 C55.85381036 35.20889254 55.33297392 37.23037618 54.8125 39.25195312 C53.54574049 44.16902961 52.27419344 49.08484491 51 54 C49.02 54 47.04 54 45 54 C43.95521127 50.75099597 42.91483961 47.50059104 41.875 44.25 C41.59140625 43.36828125 41.3078125 42.4865625 41.015625 41.578125 C37.87885022 31.75865612 34.94443129 21.87843566 32 12 C31.64172119 13.20124512 31.28344238 14.40249023 30.91430664 15.64013672 C29.58738369 20.08730612 28.25805015 24.53375187 26.92797852 28.97998047 C26.35212234 30.90621532 25.77692436 32.83264706 25.20239258 34.75927734 C24.37753571 37.52493205 23.55033179 40.28987523 22.72265625 43.0546875 C22.46533218 43.9193161 22.20800812 44.7839447 21.94288635 45.67477417 C21.70271286 46.47545319 21.46253937 47.2761322 21.21508789 48.10107422 C21.00412979 48.8072287 20.79317169 49.51338318 20.57582092 50.24093628 C20 52 20 52 19 54 C17.02 54 15.04 54 13 54 C11.14357403 46.79303342 9.29273083 39.58465005 7.44580078 32.37524414 C6.81655935 29.92178731 6.18603064 27.46866026 5.55419922 25.01586914 C4.64734369 21.49450785 3.7450924 17.97199466 2.84375 14.44921875 C2.55939087 13.34913986 2.27503174 12.24906097 1.98205566 11.11564636 C1.72178589 10.09481461 1.46151611 9.07398285 1.19335938 8.0222168 C0.96241577 7.12286911 0.73147217 6.22352142 0.49353027 5.29692078 C0 3 0 3 0 0 Z " fill="#FFFFFF" transform="translate(515,257)"/>
<path d="M0 0 C1.98 0 3.96 0 6 0 C6.29769287 1.20648193 6.59538574 2.41296387 6.90209961 3.65600586 C8.0036915 8.11652514 9.10989808 12.57588902 10.2175293 17.03491211 C10.69698775 18.96786617 11.17518082 20.90113455 11.65209961 22.8347168 C12.33638277 25.60808875 13.02515442 28.38031198 13.71484375 31.15234375 C13.92842026 32.02213364 14.14199677 32.89192352 14.36204529 33.78807068 C15.04965602 37.70967374 15.04965602 37.70967374 17 41 C20.96 27.47 24.92 13.94 29 0 C30.98 0 32.96 0 35 0 C38.96 13.53 42.92 27.06 47 41 C47.33 41 47.66 41 48 41 C51.3 27.47 54.6 13.94 58 0 C59.98 0 61.96 0 64 0 C62.76840983 7.2527399 61.25306815 14.36280557 59.3984375 21.48046875 C59.0364476 22.88876701 59.0364476 22.88876701 58.66714478 24.32551575 C57.90672647 27.28046053 57.14096652 30.23398912 56.375 33.1875 C55.85381036 35.20889254 55.33297392 37.23037618 54.8125 39.25195312 C53.54574049 44.16902961 52.27419344 49.08484491 51 54 C49.02 54 47.04 54 45 54 C41.31499872 43.55633278 38.24937359 32.98655775 35.32397461 22.30688477 C35.03659424 21.26072998 34.74921387 20.2145752 34.453125 19.13671875 C34.06882324 17.72459106 34.06882324 17.72459106 33.67675781 16.28393555 C33.07167199 13.9977799 33.07167199 13.9977799 32 12 C31.64172119 13.20124512 31.28344238 14.40249023 30.91430664 15.64013672 C29.58738369 20.08730612 28.25805015 24.53375187 26.92797852 28.97998047 C26.35212234 30.90621532 25.77692436 32.83264706 25.20239258 34.75927734 C24.37753571 37.52493205 23.55033179 40.28987523 22.72265625 43.0546875 C22.46533218 43.9193161 22.20800812 44.7839447 21.94288635 45.67477417 C21.70271286 46.47545319 21.46253937 47.2761322 21.21508789 48.10107422 C21.00412979 48.8072287 20.79317169 49.51338318 20.57582092 50.24093628 C20 52 20 52 19 54 C17.02 54 15.04 54 13 54 C11.14357403 46.79303342 9.29273083 39.58465005 7.44580078 32.37524414 C6.81655935 29.92178731 6.18603064 27.46866026 5.55419922 25.01586914 C4.64734369 21.49450785 3.7450924 17.97199466 2.84375 14.44921875 C2.55939087 13.34913986 2.27503174 12.24906097 1.98205566 11.11564636 C1.72178589 10.09481461 1.46151611 9.07398285 1.19335938 8.0222168 C0.96241577 7.12286911 0.73147217 6.22352142 0.49353027 5.29692078 C0 3 0 3 0 0 Z " fill="#FFFFFF" transform="translate(590,257)"/>
<path d="M0 0 C25 0 25 0 33 4 C36.5838892 8.56945873 37.6210807 12.07446662 37.31640625 17.86328125 C36.37220945 24.23952384 32.8703588 27.32017335 28 31 C29.9627243 36.48915752 32.98322388 41.35971689 35.8984375 46.38085938 C39 51.79348874 39 51.79348874 39 54 C36.328125 54.51171875 36.328125 54.51171875 33 54 C30.74524311 51.56363612 29.29742678 48.73302926 27.75 45.8125 C27.316875 45.04357422 26.88375 44.27464844 26.4375 43.48242188 C24.3288129 39.69134091 22.62090827 36.05227067 21 32 C16.05 32 11.1 32 6 32 C6 39.26 6 46.52 6 54 C4.02 54 2.04 54 0 54 C0 36.18 0 18.36 0 0 Z M6 5 C6 12.26 6 19.52 6 27 C10.269375 27.1546875 10.269375 27.1546875 14.625 27.3125 C15.51010254 27.35802002 16.39520508 27.40354004 17.30712891 27.45043945 C21.49984343 27.52357368 24.20213361 27.30837087 27.5234375 24.60546875 C31.15472059 20.78517566 31.39232254 18.37682434 31.359375 13.26171875 C30.78943134 9.67479071 28.79773951 8.13161106 26 6 C23.703463 4.8517315 22.41686833 4.88438825 19.8671875 4.90234375 C19.14128418 4.90484131 18.41538086 4.90733887 17.66748047 4.90991211 C16.74596191 4.91901611 15.82444336 4.92812012 14.875 4.9375 C10.481875 4.9684375 10.481875 4.9684375 6 5 Z " fill="#FFFFFF" transform="translate(1060,257)"/>
<path d="M0 0 C3.74147244 2.2082187 6.08952374 5.10462069 7.5 9.203125 C7.99428834 11.1291451 8.38339387 13.0815455 8.75390625 15.03515625 C6.77390625 15.03515625 4.79390625 15.03515625 2.75390625 15.03515625 C2.42519531 14.22111328 2.42519531 14.22111328 2.08984375 13.390625 C0.45783299 9.7086495 -0.68528179 7.44301949 -3.99609375 5.03515625 C-9.05010733 3.48007515 -13.25646324 2.99708816 -18.12109375 5.53515625 C-18.82234375 6.03015625 -19.52359375 6.52515625 -20.24609375 7.03515625 C-20.90609375 7.03515625 -21.56609375 7.03515625 -22.24609375 7.03515625 C-26.80553309 17.78240613 -28.14210075 28.64559021 -24.3046875 39.9375 C-22.29220158 43.92534111 -19.21344644 46.0514799 -15.24609375 48.03515625 C-10.27465974 48.45756568 -5.52150696 48.27704496 -0.62109375 47.34765625 C3.59626707 43.24127861 2.64177822 37.69762153 2.75390625 32.03515625 C-1.86609375 32.03515625 -6.48609375 32.03515625 -11.24609375 32.03515625 C-11.24609375 30.38515625 -11.24609375 28.73515625 -11.24609375 27.03515625 C-4.64609375 27.03515625 1.95390625 27.03515625 8.75390625 27.03515625 C8.83640625 30.25265625 8.91890625 33.47015625 9.00390625 36.78515625 C9.04032227 37.79288086 9.07673828 38.80060547 9.11425781 39.83886719 C9.19614392 46.41352933 9.19614392 46.41352933 6.953125 49.56640625 C-0.32231963 54.42531776 -7.68329583 54.97824288 -16.24609375 54.03515625 C-22.37173893 52.36180927 -26.91914494 48.3964177 -30.24609375 43.03515625 C-32.72664239 37.51530057 -32.57846685 32.09823834 -32.55859375 26.16015625 C-32.57470703 25.20496094 -32.59082031 24.24976563 -32.60742188 23.265625 C-32.6124276 15.96727179 -31.37536847 10.63854424 -27.62109375 4.28515625 C-20.03780549 -2.89901157 -9.48045935 -4.11777527 0 0 Z " fill="#FFFFFF" transform="translate(727.24609375,257.96484375)"/>
<path d="M0 0 C5.68128317 4.7429717 8.51635507 10.67204163 9.18017578 17.98486328 C9.7943957 27.9334648 10.20512335 38.91913315 3.3515625 46.92578125 C-2.27712804 52.07517281 -7.68210945 53.48702558 -15.21875 53.3046875 C-21.44464613 52.62263708 -25.44537275 50.06024251 -29.375 45.25 C-35.4256441 36.23980172 -35.21228546 24.38736452 -33.5 13.953125 C-31.76204798 7.43580493 -29.01370536 3.13164526 -23.4375 -0.8125 C-16.07739728 -4.39819107 -7.07542575 -4.19450345 0 0 Z M-23 6 C-27.85774926 12.26393984 -28.23008096 17.07747544 -28.3125 24.6875 C-28.34150391 25.56083984 -28.37050781 26.43417969 -28.40039062 27.33398438 C-28.45926214 33.39775078 -27.47640523 37.95622009 -24 43 C-19.41468286 47.25779449 -16.43873202 48.34808262 -10.3203125 48.2890625 C-6.79380136 47.84973283 -4.68719873 46.23933227 -2 44 C-1.13375 43.319375 -1.13375 43.319375 -0.25 42.625 C3.65661918 37.54639507 3.36594754 31.21730637 3.375 25.125 C3.39949219 24.26519531 3.42398438 23.40539062 3.44921875 22.51953125 C3.47653444 16.51918562 2.40697237 12.00013398 -1 7 C-4.61431892 3.56198932 -7.25342126 2.16794026 -12.25 1.6875 C-16.74067228 2.06172269 -19.51776489 3.17446431 -23 6 Z " fill="#FFFFFF" transform="translate(927,259)"/>
<path d="M0 0 C3.18777811 2.2930951 5.25955851 4.37069404 6.11328125 8.2890625 C6.37236778 10.24775663 6.52260728 12.22017614 6.65625 14.19140625 C5.00625 14.19140625 3.35625 14.19140625 1.65625 14.19140625 C1.42550781 13.64871094 1.19476562 13.10601562 0.95703125 12.546875 C-0.55355787 9.23313206 -1.82144969 6.66893796 -4.53125 4.19140625 C-9.80616029 2.31588259 -14.49764546 2.58722658 -19.78125 4.31640625 C-22.53117031 6.04847555 -22.53117031 6.04847555 -23.90625 9.06640625 C-24.57399781 12.14919306 -24.57399781 12.14919306 -23.46875 14.81640625 C-19.12946829 19.66619169 -13.36953116 21.21245597 -7.28125 23.06640625 C-1.93506023 24.77177311 1.92887069 26.96945557 5.65625 31.19140625 C7.64334286 35.16559198 7.18725065 39.87015962 6.65625 44.19140625 C4.95214041 48.01227978 2.12509218 49.90436002 -1.40625 52.06640625 C-9.22327153 54.90432493 -17.8468515 53.85230685 -25.27734375 50.453125 C-28.44082413 48.52154813 -29.83024274 46.54744408 -31.34375 43.19140625 C-32.09375 39.31640625 -32.09375 39.31640625 -32.34375 36.19140625 C-30.36375 36.19140625 -28.38375 36.19140625 -26.34375 36.19140625 C-25.9725 37.55265625 -25.9725 37.55265625 -25.59375 38.94140625 C-24.28597408 42.34162364 -23.13445474 43.90810237 -20.34375 46.19140625 C-14.45962408 48.15278156 -8.40453597 48.07967607 -2.71875 45.62890625 C-0.10595133 43.29338947 -0.10595133 43.29338947 0.84375 39.75390625 C0.99055909 36.13870795 0.99055909 36.13870795 -1.26171875 33.69140625 C-5.19644277 30.49974164 -9.07083557 29.18211347 -13.84375 27.62890625 C-26.12550394 23.57573937 -26.12550394 23.57573937 -29.63671875 18.21875 C-31.23707577 13.62988098 -31.00890583 8.85429582 -29.21875 4.37890625 C-21.9646204 -4.08424495 -9.52634111 -5.60258176 0 0 Z " fill="#FFFFFF" transform="translate(811.34375,258.80859375)"/>
<path d="M0 0 C1.65 0 3.3 0 5 0 C5 7.92 5 15.84 5 24 C14.9 24 24.8 24 35 24 C35 16.08 35 8.16 35 0 C36.65 0 38.3 0 40 0 C40 17.82 40 35.64 40 54 C38.35 54 36.7 54 35 54 C35 45.75 35 37.5 35 29 C25.1 29 15.2 29 5 29 C5 37.25 5 45.5 5 54 C3.35 54 1.7 54 0 54 C0 36.18 0 18.36 0 0 Z " fill="#FFFFFF" transform="translate(835,257)"/>
<path d="M0 0 C13.86 0 27.72 0 42 0 C42 1.65 42 3.3 42 5 C36.06 5 30.12 5 24 5 C24 21.17 24 37.34 24 54 C22.02 54 20.04 54 18 54 C18 37.83 18 21.66 18 5 C12.06 5 6.12 5 0 5 C0 3.35 0 1.7 0 0 Z " fill="#FFFFFF" transform="translate(949,257)"/>
<path d="M0 0 C1.98 0 3.96 0 6 0 C6 17.82 6 35.64 6 54 C4.02 54 2.04 54 0 54 C0 36.18 0 18.36 0 0 Z " fill="#FFFFFF" transform="translate(1034,257)"/>
<path d="M0 0 C1.98 0 3.96 0 6 0 C6 17.82 6 35.64 6 54 C4.02 54 2.04 54 0 54 C0 36.18 0 18.36 0 0 Z " fill="#FFFFFF" transform="translate(756,257)"/>
<path d="M0 0 C1.99954746 -0.04254356 4.00041636 -0.04080783 6 0 C7 1 7 1 7.125 3.5 C7 6 7 6 6 7 C4.00041636 7.04080783 1.99954746 7.04254356 0 7 C-1.125 2.25 -1.125 2.25 0 0 Z " fill="#FFFFFF" transform="translate(1006,304)"/>
<path d="M0 0 C2.4375 0.1875 2.4375 0.1875 3.4375 1.1875 C3.5625 3.6875 3.5625 3.6875 3.4375 6.1875 C2.4375 7.1875 2.4375 7.1875 -0.625 7.25 C-1.594375 7.229375 -2.56375 7.20875 -3.5625 7.1875 C-4.1875 4.8125 -4.1875 4.8125 -4.5625 2.1875 C-2.5625 0.1875 -2.5625 0.1875 0 0 Z " fill="#FFFFFF" transform="translate(672.5625,303.8125)"/>
<path d="M0 0 C2.475 0.99 2.475 0.99 5 2 C3.125 7.75 3.125 7.75 2 10 C-0.475 9.01 -0.475 9.01 -3 8 C-2.01 5.36 -1.02 2.72 0 0 Z " fill="#FFFFFF" transform="translate(506,96)"/>
<path d="M0 0 C1.32 0.66 2.64 1.32 4 2 C3.1875 5.4375 3.1875 5.4375 2 9 C1.01 9.33 0.02 9.66 -1 10 C-1.66 9.67 -2.32 9.34 -3 9 C-2.5020163 5.26512223 -2.12508244 3.18762365 0 0 Z " fill="#FFFFFF" transform="translate(511,86)"/>
<path d="M0 0 C1.65 0 3.3 0 5 0 C4.34 1.98 3.68 3.96 3 6 C0.525 5.01 0.525 5.01 -2 4 C-1.34 2.68 -0.68 1.36 0 0 Z " fill="#FFFFFF" transform="translate(514,80)"/>
<path d="M0 0 C1.65 0.33 3.3 0.66 5 1 C4.67 2.32 4.34 3.64 4 5 C2.35 5 0.7 5 -1 5 C-0.67 3.35 -0.34 1.7 0 0 Z " fill="#FFFFFF" transform="translate(501,107)"/>
</svg>

  </g>

  <!-- Second SVG -->
  <g>
  
<svg width="95" height="18" viewBox="0 0 95 18" fill="none" xmlns="http://www.w3.org/2000/svg">
<g clip-path="url(#clip0_8353_80504)">
<mask id="mask0_8353_80504" style="mask-type:luminance" maskUnits="userSpaceOnUse" x="0" y="0" width="95" height="18">
<path d="M94.3272 0H0.5V18H94.3272V0Z" fill="white"/>
</mask>
<g mask="url(#mask0_8353_80504)">
<path d="M8.04399 3.3508L6.47179 14.4438H0.947364L0.460938 17.9312H5.53368C6.74106 17.9224 7.71392 17.5194 8.51305 16.8359C9.31218 16.1525 9.85941 15.1798 10.0245 14.0232L11.5359 3.34204H8.04399V3.3508Z" fill="#2635D9"/>
<path d="M70.0814 11.5874C70.8457 10.904 71.3322 9.88754 71.4798 8.76597L72.7133 -0.0576172H69.2474L69.2388 -0.022566L67.4668 12.7002L67.5276 12.6915C68.5264 12.5776 69.4125 12.1833 70.0814 11.5874Z" fill="#2635D9"/>
<path d="M91.7259 11.5874C92.4903 10.904 92.9767 9.88754 93.1244 8.76597L94.3578 -0.0576172H90.892L90.8833 -0.022566L89.1113 12.7002L89.1721 12.6915C90.1624 12.5776 91.0484 12.1833 91.7259 11.5874Z" fill="#2635D9"/>
<path d="M44.6302 8.74832L44.665 8.50298L45.3859 3.33325H41.9288L41.1036 9.18644H39.1232L38.6367 12.6826H40.0178C41.234 12.6738 42.3023 12.2532 43.1101 11.5698C43.9267 10.8863 44.4652 9.9137 44.6302 8.74832Z" fill="#2635D9"/>
<path d="M50.1048 8.74832L50.1396 8.50298L50.8604 3.33325H47.4034L46.5781 9.18644H44.5977L44.1113 12.6826H45.4924C46.7085 12.6738 47.7768 12.2532 48.5847 11.5698C49.3925 10.8863 49.931 9.9137 50.1048 8.74832Z" fill="#2635D9"/>
<path d="M65.2761 13.883L66.7354 3.34204H63.2349L61.6888 14.4351H54.7571L55.8169 6.82942H52.3771L50.8223 17.9312L61.7582 17.9224C62.8875 17.8436 63.6432 17.3792 64.2078 16.6694C64.7984 15.9509 65.1198 14.9871 65.2761 13.883Z" fill="#2635D9"/>
<path d="M39.8793 3.34204H36.4742L35.6491 9.20399H28.7174L29.5427 3.34204H26.0335L23.9922 18.0013L24.053 17.9925C24.5394 17.94 25.1996 17.791 25.7034 17.5457C26.3721 17.2215 27.0063 16.7308 27.4579 16.0736C27.6143 15.8458 27.7446 15.4602 27.8401 15.1273C27.9357 14.7943 27.9965 14.5139 27.9965 14.5139L28.2397 12.6914H34.3722C35.597 12.6914 36.8043 12.262 37.6382 11.5786C38.4721 10.8951 39.0106 9.91373 39.1843 8.75711L39.9401 3.34204H39.8793Z" fill="#2635D9"/>
<path d="M59.2852 6.83821L59.7716 3.35083H57.5306C57.1745 3.35083 56.8184 3.51731 56.5751 3.72761C56.3405 3.9379 56.1842 4.22706 56.1408 4.57755L55.8281 6.83821H59.2852Z" fill="#FA8100"/>
<path d="M16.4196 3.34204C14.7693 3.34204 13.3968 4.4899 13.1536 6.11091L12.6845 9.51067C12.6585 9.66839 12.6498 9.82611 12.6585 9.97507C12.6845 10.6936 13.0059 11.3683 13.5098 11.8677C14.0135 12.3672 14.6997 12.6826 15.4467 12.6826L18.0526 12.6914L18.5478 9.20399H16.2198L16.5499 6.83818H20.0244L18.956 14.4438H12.0244L11.5293 17.94H18.0266C19.1905 17.8874 20.1807 17.5106 20.9364 16.8622C21.6922 16.2138 22.2654 15.3025 22.4739 14.1722L23.9853 3.3508L16.4196 3.34204Z" fill="#2635D9"/>
<path d="M77.543 17.9224H82.4419C83.1108 17.9224 83.6581 17.6858 84.0663 17.3091C84.4746 16.9323 84.7612 16.3978 84.8568 15.7669L85.0479 14.4263H78.038L77.543 17.9224Z" fill="#2635D9"/>
<path d="M84.8656 3.35078L84.0403 9.20396H77.0045L77.8211 3.35078H74.2771L72.7483 14.4438H67.2239L66.7461 17.9312H71.9752C71.9752 17.9312 72.0534 17.9312 72.175 17.9312C74.2597 17.9224 75.9883 16.4153 76.2836 14.3474L76.5181 12.6913H83.25C85.4649 12.6913 87.3063 11.0878 87.6104 8.88852L88.3921 3.33325H84.8656V3.35078Z" fill="#2635D9"/>
</g>
</g>
<defs>
<clipPath id="clip0_8353_80504">
<rect width="94" height="18" fill="white" transform="translate(0.5)"/>
</clipPath>
</defs>
</svg>

  </g>
</svg>
